%TF.GenerationSoftware,KiCad,Pcbnew,9.0.7*%
%TF.CreationDate,2026-03-22T16:30:41+08:00*%
%TF.ProjectId,MokyaLora,4d6f6b79-614c-46f7-9261-2e6b69636164,A*%
%TF.SameCoordinates,Original*%
%TF.FileFunction,Soldermask,Top*%
%TF.FilePolarity,Negative*%
%FSLAX46Y46*%
G04 Gerber Fmt 4.6, Leading zero omitted, Abs format (unit mm)*
G04 Created by KiCad (PCBNEW 9.0.7) date 2026-03-22 16:30:41*
%MOMM*%
%LPD*%
G01*
G04 APERTURE LIST*
G04 Aperture macros list*
%AMRoundRect*
0 Rectangle with rounded corners*
0 $1 Rounding radius*
0 $2 $3 $4 $5 $6 $7 $8 $9 X,Y pos of 4 corners*
0 Add a 4 corners polygon primitive as box body*
4,1,4,$2,$3,$4,$5,$6,$7,$8,$9,$2,$3,0*
0 Add four circle primitives for the rounded corners*
1,1,$1+$1,$2,$3*
1,1,$1+$1,$4,$5*
1,1,$1+$1,$6,$7*
1,1,$1+$1,$8,$9*
0 Add four rect primitives between the rounded corners*
20,1,$1+$1,$2,$3,$4,$5,0*
20,1,$1+$1,$4,$5,$6,$7,0*
20,1,$1+$1,$6,$7,$8,$9,0*
20,1,$1+$1,$8,$9,$2,$3,0*%
G04 Aperture macros list end*
%ADD10RoundRect,0.150000X-0.200000X0.150000X-0.200000X-0.150000X0.200000X-0.150000X0.200000X0.150000X0*%
%ADD11C,1.000000*%
%ADD12RoundRect,0.097500X0.227500X-0.227500X0.227500X0.227500X-0.227500X0.227500X-0.227500X-0.227500X0*%
%ADD13RoundRect,0.120000X-0.380000X-0.280000X0.380000X-0.280000X0.380000X0.280000X-0.380000X0.280000X0*%
%ADD14RoundRect,0.097500X-0.227500X0.227500X-0.227500X-0.227500X0.227500X-0.227500X0.227500X0.227500X0*%
%ADD15RoundRect,0.125000X-0.250000X-0.125000X0.250000X-0.125000X0.250000X0.125000X-0.250000X0.125000X0*%
%ADD16R,3.400000X4.300000*%
%ADD17RoundRect,0.120000X0.380000X0.280000X-0.380000X0.280000X-0.380000X-0.280000X0.380000X-0.280000X0*%
%ADD18R,3.200000X1.800000*%
%ADD19C,0.800000*%
%ADD20C,5.400000*%
%ADD21RoundRect,0.140000X0.140000X0.170000X-0.140000X0.170000X-0.140000X-0.170000X0.140000X-0.170000X0*%
%ADD22O,2.800000X1.900000*%
%ADD23C,0.650000*%
%ADD24O,1.000000X1.800000*%
%ADD25O,1.000000X2.100000*%
G04 APERTURE END LIST*
D10*
%TO.C,D27*%
X147400000Y-124300000D03*
X147400000Y-125700000D03*
%TD*%
%TO.C,D9*%
X117400000Y-124300000D03*
X117400000Y-125700000D03*
%TD*%
%TO.C,D15*%
X127400000Y-124300000D03*
X127400000Y-125700000D03*
%TD*%
D11*
%TO.C,TP1*%
X113000000Y-141000000D03*
%TD*%
D10*
%TO.C,D3*%
X107400000Y-124300000D03*
X107400000Y-125700000D03*
%TD*%
D12*
%TO.C,SW18*%
X128625000Y-141375000D03*
X128625000Y-138625000D03*
X131375000Y-141375000D03*
X131375000Y-138625000D03*
%TD*%
D10*
%TO.C,D21*%
X137400000Y-124300000D03*
X137400000Y-125700000D03*
%TD*%
%TO.C,D12*%
X117400000Y-139300000D03*
X117400000Y-140700000D03*
%TD*%
D12*
%TO.C,SW12*%
X118625000Y-141375000D03*
X118625000Y-138625000D03*
X121375000Y-141375000D03*
X121375000Y-138625000D03*
%TD*%
D11*
%TO.C,TP9*%
X145000000Y-126500000D03*
%TD*%
D10*
%TO.C,D23*%
X137400000Y-134300000D03*
X137400000Y-135700000D03*
%TD*%
%TO.C,D18*%
X127400000Y-139600000D03*
X127400000Y-141000000D03*
%TD*%
%TO.C,D30*%
X147400000Y-139300000D03*
X147400000Y-140700000D03*
%TD*%
D13*
%TO.C,D38*%
X105000000Y-108342213D03*
X105000000Y-106642213D03*
%TD*%
D14*
%TO.C,SW31*%
X131375000Y-101625000D03*
X131375000Y-104375000D03*
X128625000Y-101625000D03*
X128625000Y-104375000D03*
%TD*%
D12*
%TO.C,SW15*%
X128625000Y-126375000D03*
X128625000Y-123625000D03*
X131375000Y-126375000D03*
X131375000Y-123625000D03*
%TD*%
D15*
%TO.C,U4*%
X132900000Y-113395000D03*
X132900000Y-114665000D03*
X132900000Y-115935000D03*
X132900000Y-117205000D03*
X138300000Y-117205000D03*
X138300000Y-115935000D03*
X138300000Y-114665000D03*
X138300000Y-113395000D03*
D16*
X135600000Y-115300000D03*
%TD*%
D11*
%TO.C,TP11*%
X145000000Y-135500000D03*
%TD*%
D14*
%TO.C,SW32*%
X131375000Y-106625000D03*
X131375000Y-109375000D03*
X128625000Y-106625000D03*
X128625000Y-109375000D03*
%TD*%
D12*
%TO.C,SW13*%
X122625000Y-109375000D03*
X122625000Y-106625000D03*
X125375000Y-109375000D03*
X125375000Y-106625000D03*
%TD*%
D10*
%TO.C,D33*%
X127400000Y-112300000D03*
X127400000Y-113700000D03*
%TD*%
D13*
%TO.C,D39*%
X105000000Y-125850000D03*
X105000000Y-124150000D03*
%TD*%
D12*
%TO.C,SW35*%
X143625000Y-104375000D03*
X143625000Y-101625000D03*
X146375000Y-104375000D03*
X146375000Y-101625000D03*
%TD*%
D10*
%TO.C,D34*%
X139600000Y-107300000D03*
X139600000Y-108700000D03*
%TD*%
D11*
%TO.C,TP7*%
X152000000Y-115000000D03*
%TD*%
D12*
%TO.C,SW8*%
X118625000Y-121375000D03*
X118625000Y-118625000D03*
X121375000Y-121375000D03*
X121375000Y-118625000D03*
%TD*%
D17*
%TO.C,D42*%
X155000000Y-139150000D03*
X155000000Y-140850000D03*
%TD*%
D12*
%TO.C,SW10*%
X118625000Y-131375000D03*
X118625000Y-128625000D03*
X121375000Y-131375000D03*
X121375000Y-128625000D03*
%TD*%
%TO.C,SW24*%
X138625000Y-141375000D03*
X138625000Y-138625000D03*
X141375000Y-141375000D03*
X141375000Y-138625000D03*
%TD*%
D17*
%TO.C,D41*%
X155196661Y-106642213D03*
X155196661Y-108342213D03*
%TD*%
D11*
%TO.C,TP5*%
X153000000Y-141000000D03*
%TD*%
D12*
%TO.C,SW22*%
X138625000Y-131375000D03*
X138625000Y-128625000D03*
X141375000Y-131375000D03*
X141375000Y-128625000D03*
%TD*%
D10*
%TO.C,D29*%
X147400000Y-134300000D03*
X147400000Y-135700000D03*
%TD*%
D12*
%TO.C,SW3*%
X108625000Y-126375000D03*
X108625000Y-123625000D03*
X111375000Y-126375000D03*
X111375000Y-123625000D03*
%TD*%
D17*
%TO.C,D43*%
X155000000Y-124150000D03*
X155000000Y-125850000D03*
%TD*%
D11*
%TO.C,TP2*%
X123000000Y-141000000D03*
%TD*%
D10*
%TO.C,D24*%
X137400000Y-139300000D03*
X137400000Y-140700000D03*
%TD*%
%TO.C,D28*%
X147400000Y-129300000D03*
X147400000Y-130700000D03*
%TD*%
%TO.C,D6*%
X107400000Y-139300000D03*
X107400000Y-140700000D03*
%TD*%
%TO.C,D22*%
X137400000Y-129300000D03*
X137400000Y-130700000D03*
%TD*%
D12*
%TO.C,SW29*%
X148625000Y-136375000D03*
X148625000Y-133625000D03*
X151375000Y-136375000D03*
X151375000Y-133625000D03*
%TD*%
D11*
%TO.C,TP6*%
X157700000Y-104400000D03*
%TD*%
D10*
%TO.C,D20*%
X137400000Y-119300000D03*
X137400000Y-120700000D03*
%TD*%
D12*
%TO.C,SW5*%
X108625000Y-136375000D03*
X108625000Y-133625000D03*
X111375000Y-136375000D03*
X111375000Y-133625000D03*
%TD*%
D18*
%TO.C,LS1*%
X134546661Y-54192213D03*
X125846661Y-54192213D03*
X125846661Y-42792213D03*
X134546661Y-42792213D03*
%TD*%
D10*
%TO.C,D31*%
X132600000Y-102300000D03*
X132600000Y-103700000D03*
%TD*%
%TO.C,D2*%
X107400000Y-119300000D03*
X107400000Y-120700000D03*
%TD*%
%TO.C,D5*%
X107400000Y-134300000D03*
X107400000Y-135700000D03*
%TD*%
D12*
%TO.C,SW6*%
X108625000Y-141375000D03*
X108625000Y-138625000D03*
X111375000Y-141375000D03*
X111375000Y-138625000D03*
%TD*%
D10*
%TO.C,D14*%
X127400000Y-119300000D03*
X127400000Y-120700000D03*
%TD*%
D12*
%TO.C,SW20*%
X138625000Y-121375000D03*
X138625000Y-118625000D03*
X141375000Y-121375000D03*
X141375000Y-118625000D03*
%TD*%
%TO.C,SW27*%
X148625000Y-126375000D03*
X148625000Y-123625000D03*
X151375000Y-126375000D03*
X151375000Y-123625000D03*
%TD*%
%TO.C,SW36*%
X153625000Y-104375000D03*
X153625000Y-101625000D03*
X156375000Y-104375000D03*
X156375000Y-101625000D03*
%TD*%
D10*
%TO.C,D26*%
X147400000Y-119300000D03*
X147400000Y-120700000D03*
%TD*%
D12*
%TO.C,SW17*%
X128625000Y-136375000D03*
X128625000Y-133625000D03*
X131375000Y-136375000D03*
X131375000Y-133625000D03*
%TD*%
D10*
%TO.C,D25*%
X152400000Y-112300000D03*
X152400000Y-113700000D03*
%TD*%
D12*
%TO.C,SW9*%
X118625000Y-126375000D03*
X118625000Y-123625000D03*
X121375000Y-126375000D03*
X121375000Y-123625000D03*
%TD*%
%TO.C,SW26*%
X148625000Y-121375000D03*
X148625000Y-118625000D03*
X151375000Y-121375000D03*
X151375000Y-118625000D03*
%TD*%
%TO.C,SW23*%
X138625000Y-136375000D03*
X138625000Y-133625000D03*
X141375000Y-136375000D03*
X141375000Y-133625000D03*
%TD*%
%TO.C,SW16*%
X128625000Y-131375000D03*
X128625000Y-128625000D03*
X131375000Y-131375000D03*
X131375000Y-128625000D03*
%TD*%
D10*
%TO.C,D19*%
X142400000Y-112300000D03*
X142400000Y-113700000D03*
%TD*%
%TO.C,D17*%
X127400000Y-134300000D03*
X127400000Y-135700000D03*
%TD*%
%TO.C,D32*%
X132600000Y-107300000D03*
X132600000Y-108700000D03*
%TD*%
D14*
%TO.C,SW34*%
X138375000Y-106625000D03*
X138375000Y-109375000D03*
X135625000Y-106625000D03*
X135625000Y-109375000D03*
%TD*%
D13*
%TO.C,D40*%
X105000000Y-140850000D03*
X105000000Y-139150000D03*
%TD*%
D10*
%TO.C,D35*%
X142400000Y-102300000D03*
X142400000Y-103700000D03*
%TD*%
%TO.C,D1*%
X112400000Y-102300000D03*
X112400000Y-103700000D03*
%TD*%
D11*
%TO.C,TP10*%
X145000000Y-131500000D03*
%TD*%
D19*
%TO.C,H4*%
X98890095Y-140887564D03*
X99483204Y-139455673D03*
X99483204Y-142319455D03*
X100915095Y-138862564D03*
D20*
X100915095Y-140887564D03*
D19*
X100915095Y-142912564D03*
X102346986Y-139455673D03*
X102346986Y-142319455D03*
X102940095Y-140887564D03*
%TD*%
D10*
%TO.C,D36*%
X152400000Y-102300000D03*
X152400000Y-103700000D03*
%TD*%
D12*
%TO.C,SW7*%
X113625000Y-114375000D03*
X113625000Y-111625000D03*
X116375000Y-114375000D03*
X116375000Y-111625000D03*
%TD*%
D10*
%TO.C,D10*%
X117400000Y-129300000D03*
X117400000Y-130700000D03*
%TD*%
D21*
%TO.C,C22*%
X138480000Y-112100000D03*
X137520000Y-112100000D03*
%TD*%
D12*
%TO.C,SW14*%
X128625000Y-121375000D03*
X128625000Y-118625000D03*
X131375000Y-121375000D03*
X131375000Y-118625000D03*
%TD*%
D10*
%TO.C,D4*%
X107400000Y-129300000D03*
X107400000Y-130700000D03*
%TD*%
D19*
%TO.C,H2*%
X155975000Y-45000000D03*
X156568109Y-43568109D03*
X156568109Y-46431891D03*
X158000000Y-42975000D03*
D20*
X158000000Y-45000000D03*
D19*
X158000000Y-47025000D03*
X159431891Y-43568109D03*
X159431891Y-46431891D03*
X160025000Y-45000000D03*
%TD*%
D12*
%TO.C,SW25*%
X153625000Y-114375000D03*
X153625000Y-111625000D03*
X156375000Y-114375000D03*
X156375000Y-111625000D03*
%TD*%
D10*
%TO.C,D8*%
X117400000Y-119300000D03*
X117400000Y-120700000D03*
%TD*%
%TO.C,D11*%
X117400000Y-134300000D03*
X117400000Y-135700000D03*
%TD*%
D12*
%TO.C,SW1*%
X113625000Y-104375000D03*
X113625000Y-101625000D03*
X116375000Y-104375000D03*
X116375000Y-101625000D03*
%TD*%
D10*
%TO.C,D16*%
X127400000Y-129300000D03*
X127400000Y-130700000D03*
%TD*%
D12*
%TO.C,SW19*%
X143625000Y-114375000D03*
X143625000Y-111625000D03*
X146375000Y-114375000D03*
X146375000Y-111625000D03*
%TD*%
D11*
%TO.C,TP3*%
X133196661Y-139892213D03*
%TD*%
%TO.C,TP8*%
X145000000Y-121400000D03*
%TD*%
%TO.C,TP12*%
X145000000Y-141000000D03*
%TD*%
D12*
%TO.C,SW33*%
X128625000Y-114375000D03*
X128625000Y-111625000D03*
X131375000Y-114375000D03*
X131375000Y-111625000D03*
%TD*%
%TO.C,SW30*%
X148625000Y-141375000D03*
X148625000Y-138625000D03*
X151375000Y-141375000D03*
X151375000Y-138625000D03*
%TD*%
D10*
%TO.C,D13*%
X121400000Y-107300000D03*
X121400000Y-108700000D03*
%TD*%
D11*
%TO.C,TP4*%
X143000000Y-141000000D03*
%TD*%
D10*
%TO.C,D7*%
X112400000Y-112300000D03*
X112400000Y-113700000D03*
%TD*%
D12*
%TO.C,SW21*%
X138625000Y-126375000D03*
X138625000Y-123625000D03*
X141375000Y-126375000D03*
X141375000Y-123625000D03*
%TD*%
%TO.C,SW28*%
X148625000Y-131375000D03*
X148625000Y-128625000D03*
X151375000Y-131375000D03*
X151375000Y-128625000D03*
%TD*%
%TO.C,SW2*%
X108625000Y-121375000D03*
X108625000Y-118625000D03*
X111375000Y-121375000D03*
X111375000Y-118625000D03*
%TD*%
%TO.C,SW4*%
X108625000Y-131375000D03*
X108625000Y-128625000D03*
X111375000Y-131375000D03*
X111375000Y-128625000D03*
%TD*%
%TO.C,SW11*%
X118625000Y-136375000D03*
X118625000Y-133625000D03*
X121375000Y-136375000D03*
X121375000Y-133625000D03*
%TD*%
D22*
%TO.C,D37*%
X100000000Y-48000000D03*
%TD*%
D19*
%TO.C,U9*%
X141000000Y-143000000D03*
%TD*%
D22*
%TO.C,D44*%
X100000000Y-54000000D03*
%TD*%
D23*
%TO.C,J1*%
X132890000Y-138695000D03*
X127110000Y-138695000D03*
D24*
X134320000Y-142375000D03*
D25*
X134320000Y-138195000D03*
D24*
X125680000Y-142375000D03*
D25*
X125680000Y-138195000D03*
%TD*%
M02*
