M48
; DRILL file {KiCad 9.0.7} date 2026-03-22T15:49:20+0800
; FORMAT={-:-/ absolute / metric / decimal}
; #@! TF.CreationDate,2026-03-22T15:49:20+08:00
; #@! TF.GenerationSoftware,Kicad,Pcbnew,9.0.7
; #@! TF.FileFunction,MixedPlating,1,6
FMAT,2
METRIC
; #@! TA.AperFunction,Plated,PTH,ViaDrill
T1C0.200
; #@! TA.AperFunction,Plated,PTH,ComponentDrill
T2C0.500
; #@! TA.AperFunction,Plated,PTH,ComponentDrill
T3C0.600
; #@! TA.AperFunction,Plated,PTH,ComponentDrill
T4C2.700
; #@! TA.AperFunction,NonPlated,NPTH,ComponentDrill
T5C0.650
; #@! TA.AperFunction,NonPlated,NPTH,ComponentDrill
T6C0.800
; #@! TA.AperFunction,NonPlated,NPTH,ComponentDrill
T7C1.900
%
G90
G05
T1
X97.5Y-45.0
X97.5Y-50.0
X97.5Y-57.5
X97.5Y-62.5
X97.5Y-67.5
X97.5Y-72.5
X97.5Y-77.5
X97.5Y-82.5
X97.5Y-87.5
X97.5Y-92.5
X97.5Y-97.5
X97.5Y-102.5
X97.5Y-107.5
X97.5Y-112.5
X97.5Y-117.5
X97.5Y-122.5
X97.5Y-127.5
X97.5Y-132.5
X97.5Y-137.5
X99.4Y-45.4
X99.5Y-50.4
X100.0Y-130.0
X100.0Y-135.0
X100.5Y-50.4
X100.5Y-51.6
X100.9Y-115.1
X100.9Y-121.5
X100.9Y-123.6
X101.2Y-116.6
X101.4Y-127.7
X101.8Y-118.2
X101.9Y-41.0
X101.9Y-42.5
X101.9Y-43.5
X101.9Y-44.5
X101.9Y-45.5
X101.9Y-46.5
X101.9Y-47.5
X101.9Y-48.5
X101.9Y-49.5
X101.9Y-50.5
X101.9Y-51.5
X102.02Y-115.12
X102.5Y-52.5
X102.5Y-106.0
X102.5Y-107.0
X102.5Y-108.0
X102.6Y-120.4
X103.0Y-54.5
X103.0Y-58.0
X103.5Y-52.5
X104.0Y-106.0
X104.0Y-120.4
X104.5Y-52.5
X104.7Y-112.3
X104.82Y-63.58
X104.9Y-59.8
X104.9Y-115.4
X104.9Y-116.2
X104.9Y-117.0
X105.0Y-70.0
X105.0Y-75.0
X105.0Y-80.0
X105.0Y-85.0
X105.0Y-90.0
X105.0Y-95.0
X105.0Y-100.0
X105.0Y-128.0
X105.0Y-142.0
X105.0Y-145.0
X105.2Y-111.8
X105.4Y-134.3
X105.5Y-52.5
X105.5Y-54.5
X105.7Y-115.4
X105.7Y-116.2
X105.7Y-117.0
X105.7Y-122.7
X105.8Y-109.4
X105.8Y-126.6
X106.0Y-106.0
X106.0Y-108.0
X106.0Y-130.0
X106.4Y-134.3
X106.5Y-52.5
X106.5Y-115.4
X106.5Y-116.2
X106.5Y-117.0
X106.6Y-123.3
X107.0Y-107.0
X107.0Y-137.5
X107.4Y-111.2
X107.4Y-136.4
X107.42Y-121.38
X107.5Y-52.5
X107.5Y-57.5
X107.9Y-125.1
X108.4Y-66.8
X108.5Y-52.5
X108.7Y-57.9
X109.1Y-117.3
X109.2Y-70.2
X109.2Y-134.3
X109.3Y-109.9
X109.5Y-52.5
X109.5Y-123.0
X109.6Y-66.8
X109.8Y-70.8
X109.8Y-116.6
X109.8Y-117.8
X110.0Y-75.0
X110.0Y-80.0
X110.0Y-85.0
X110.0Y-90.0
X110.0Y-95.0
X110.0Y-139.0
X110.0Y-145.0
X110.1Y-130.4
X110.1Y-131.3
X110.1Y-132.2
X110.5Y-52.5
X110.7Y-131.3
X110.8Y-127.6
X110.8Y-130.4
X110.8Y-132.2
X110.9Y-116.6
X110.9Y-117.8
X111.2Y-109.0
X111.5Y-52.5
X111.5Y-54.5
X111.5Y-103.5
X111.9Y-116.3
X112.0Y-57.9
X112.0Y-105.0
X112.0Y-127.4
X112.5Y-52.5
X112.5Y-129.8
X112.5Y-132.0
X112.7Y-128.1
X112.8Y-117.4
X112.9Y-66.8
X113.0Y-115.0
X113.0Y-139.5
X113.2Y-130.5
X113.5Y-52.5
X113.5Y-121.0
X113.6Y-62.4
X113.6Y-117.3
X113.9Y-61.1
X114.5Y-52.5
X114.5Y-135.4
X114.7Y-130.5
X115.0Y-75.0
X115.0Y-80.0
X115.0Y-85.0
X115.0Y-90.0
X115.0Y-100.0
X115.0Y-138.4
X115.0Y-145.0
X115.5Y-126.0
X115.6Y-108.2
X115.8Y-52.5
X115.8Y-53.3
X115.8Y-54.1
X115.8Y-55.2
X115.8Y-109.2
X115.9Y-135.5
X116.0Y-117.0
X116.1Y-136.6
X116.2Y-56.2
X116.3Y-125.1
X116.4Y-106.8
X116.5Y-126.9
X116.6Y-120.1
X116.8Y-115.2
X116.8Y-122.8
X116.9Y-132.1
X117.0Y-85.0
X117.0Y-110.6
X117.1Y-56.9
X117.2Y-52.5
X117.2Y-53.3
X117.2Y-54.1
X117.3Y-123.7
X117.4Y-55.0
X117.6Y-109.2
X117.6Y-110.0
X117.6Y-110.6
X117.6Y-143.1
X118.0Y-61.0
X118.0Y-116.0
X118.1Y-70.1
X118.2Y-110.6
X118.5Y-41.5
X118.5Y-42.5
X118.5Y-43.5
X118.5Y-45.5
X118.5Y-46.5
X118.5Y-47.5
X118.5Y-48.5
X118.5Y-49.5
X118.5Y-50.5
X118.5Y-51.5
X118.5Y-52.5
X118.5Y-55.6
X118.5Y-106.0
X118.5Y-107.0
X118.5Y-117.9
X118.6Y-70.1
X118.8Y-132.7
X118.99Y-82.3
X119.0Y-72.8
X119.0Y-73.3
X119.0Y-73.8
X119.0Y-74.3
X119.0Y-74.8
X119.0Y-75.3
X119.0Y-75.8
X119.0Y-76.3
X119.0Y-76.8
X119.0Y-81.8
X119.0Y-82.8
X119.0Y-83.7
X119.1Y-135.0
X119.25Y-128.7
X119.3Y-44.3
X119.3Y-125.55
X119.3Y-126.0
X119.3Y-126.45
X119.3Y-126.9
X119.5Y-55.6
X119.5Y-56.8
X119.5Y-106.0
X119.5Y-107.0
X119.5Y-109.5
X119.6Y-132.7
X119.9Y-119.1
X120.0Y-41.0
X120.0Y-145.0
X120.092Y-108.376
X120.1Y-53.5
X120.5Y-55.6
X120.5Y-106.0
X120.5Y-107.0
X120.5Y-109.5
X120.5Y-127.8
X120.5Y-133.8
X120.5Y-142.5
X120.8Y-124.7
X120.8Y-134.9
X120.9Y-129.4
X120.9Y-130.6
X121.0Y-64.0
X121.0Y-143.0
X121.4Y-55.6
X121.4Y-57.0
X121.5Y-102.8
X121.5Y-109.5
X121.5Y-142.5
X121.6Y-110.6
X121.7Y-69.4
X122.0Y-61.0
X122.0Y-102.0
X122.0Y-127.7
X122.0Y-143.0
X122.1Y-105.9
X122.1Y-107.3
X122.2Y-48.0
X122.2Y-110.2
X122.2Y-110.9
X122.4Y-55.6
X122.4Y-57.0
X122.4Y-124.65
X122.4Y-129.5
X122.5Y-69.0
X122.6Y-130.7
X123.0Y-46.0
X123.4Y-55.6
X123.4Y-57.0
X123.4Y-105.5
X123.4Y-107.3
X123.6Y-134.4
X123.8Y-136.8
X124.0Y-66.0
X124.0Y-104.3
X124.0Y-143.0
X124.1Y-105.5
X124.7Y-73.2
X124.8Y-57.0
X124.9Y-105.5
X125.0Y-41.0
X125.0Y-55.6
X125.0Y-71.5
X125.0Y-145.0
X125.6Y-127.8
X125.6Y-128.5
X125.6Y-129.2
X125.6Y-129.9
X125.6Y-130.6
X125.6Y-134.5
X125.7Y-136.1
X125.8Y-55.6
X125.8Y-57.0
X125.9Y-104.3
X125.9Y-112.5
X125.9Y-113.6
X126.0Y-61.0
X126.0Y-73.0
X126.0Y-75.0
X126.0Y-105.5
X126.0Y-106.0
X126.0Y-106.5
X126.0Y-117.0
X126.0Y-124.0
X126.2Y-108.6
X126.3Y-136.7
X126.5Y-79.6
X126.5Y-106.0
X126.5Y-106.5
X126.5Y-111.5
X126.5Y-135.5
X126.6Y-112.5
X126.6Y-113.6
X126.6Y-117.8
X126.6Y-118.6
X126.6Y-119.3
X126.6Y-119.9
X126.6Y-120.7
X126.6Y-121.4
X126.6Y-132.4
X126.8Y-55.6
X126.8Y-57.0
X127.0Y-64.0
X127.0Y-68.0
X127.0Y-88.0
X127.0Y-91.0
X127.1Y-96.2
X127.1Y-98.3
X127.1Y-101.3
X127.2Y-104.3
X127.2Y-136.4
X127.4Y-121.4
X127.5Y-93.2
X127.5Y-114.5
X127.5Y-126.5
X127.5Y-127.9
X127.5Y-130.0
X127.7Y-131.5
X127.8Y-55.6
X127.8Y-57.0
X127.8Y-96.8
X127.8Y-97.8
X127.8Y-98.8
X127.8Y-100.8
X127.8Y-101.8
X127.8Y-102.8
X127.8Y-103.8
X128.0Y-46.0
X128.0Y-143.0
X128.1Y-105.8
X128.5Y-71.0
X128.5Y-97.3
X128.5Y-99.3
X128.5Y-100.3
X128.5Y-102.3
X128.5Y-103.3
X128.6Y-54.2
X128.792Y-42.792
X128.8Y-55.6
X128.8Y-57.0
X129.0Y-50.0
X129.5Y-85.5
X129.5Y-93.2
X129.5Y-135.0
X129.5Y-139.0
X129.8Y-55.6
X129.8Y-57.0
X130.0Y-41.0
X130.0Y-61.0
X130.0Y-108.0
X130.0Y-120.0
X130.0Y-125.0
X130.0Y-130.0
X130.0Y-139.8
X130.0Y-145.0
X130.5Y-91.0
X130.5Y-139.0
X130.6Y-111.3
X130.8Y-55.6
X130.8Y-57.0
X131.2Y-115.4
X131.8Y-55.6
X131.8Y-57.0
X131.9Y-93.2
X132.0Y-88.0
X132.0Y-111.3
X132.0Y-133.0
X132.0Y-134.4
X132.0Y-139.0
X132.0Y-139.8
X132.0Y-143.0
X132.2Y-115.0
X132.2Y-116.0
X132.9Y-114.1
X132.9Y-136.3
X133.0Y-49.8
X133.0Y-52.0
X133.0Y-106.5
X133.0Y-120.0
X133.0Y-125.0
X133.0Y-130.0
X133.2Y-107.8
X133.3Y-88.9
X133.3Y-134.9
X133.4Y-111.3
X133.8Y-89.9
X133.9Y-136.7
X134.0Y-105.9
X134.1Y-132.6
X134.2Y-113.8
X134.2Y-116.8
X134.3Y-79.8
X134.4Y-69.8
X134.4Y-70.7
X134.4Y-88.9
X134.5Y-83.0
X134.5Y-99.6
X134.5Y-136.1
X134.6Y-103.2
X134.601Y-103.801
X134.8Y-68.7
X134.8Y-108.8
X134.8Y-111.3
X134.8Y-135.122
X134.9Y-89.9
X134.9Y-136.7
X135.0Y-41.0
X135.0Y-47.0
X135.0Y-75.0
X135.0Y-98.0
X135.0Y-100.0
X135.0Y-120.0
X135.0Y-125.0
X135.0Y-130.0
X135.0Y-145.0
X135.1Y-113.8
X135.1Y-115.2
X135.1Y-116.8
X135.3Y-103.3
X135.4Y-57.6
X135.5Y-86.5
X135.5Y-88.9
X135.7Y-78.9
X135.7Y-105.2
X135.8Y-68.3
X135.9Y-140.3
X136.0Y-60.0
X136.0Y-104.0
X136.1Y-69.8
X136.1Y-84.0
X136.1Y-97.2
X136.1Y-113.8
X136.1Y-115.2
X136.1Y-116.8
X136.2Y-70.6
X136.2Y-111.3
X136.3Y-58.4
X136.4Y-56.4
X136.447Y-53.9
X136.5Y-59.5
X136.5Y-83.4
X136.5Y-88.0
X136.5Y-89.0
X136.5Y-90.1
X136.5Y-100.5
X136.5Y-102.0
X136.5Y-131.5
X136.5Y-132.6
X136.5Y-134.8
X136.5Y-135.5
X136.7Y-84.0
X137.0Y-47.0
X137.0Y-62.0
X137.0Y-86.5
X137.0Y-98.0
X137.0Y-105.2
X137.0Y-113.8
X137.1Y-57.2
X137.1Y-83.4
X137.3Y-58.4
X137.3Y-68.3
X137.3Y-84.0
X137.4Y-50.8
X137.5Y-121.4
X137.5Y-126.5
X137.567Y-100.267
X137.567Y-101.4
X137.567Y-102.533
X137.6Y-69.8
X137.6Y-111.3
X137.6Y-136.5
X137.7Y-54.2
X137.7Y-79.7
X137.7Y-83.4
X137.7Y-114.1
X137.8Y-73.6
X137.8Y-118.0
X137.9Y-84.0
X137.9Y-115.3
X138.0Y-43.0
X138.0Y-68.3
X138.0Y-86.5
X138.0Y-99.0
X138.0Y-141.2
X138.0Y-141.8
X138.1Y-97.2
X138.2Y-59.4
X138.2Y-60.4
X138.4Y-132.4
X138.5Y-50.8
X138.5Y-55.0
X138.5Y-104.0
X138.7Y-100.267
X138.7Y-101.4
X138.7Y-102.533
X138.9Y-115.3
X139.0Y-47.0
X139.0Y-69.9
X139.0Y-77.0
X139.0Y-111.3
X139.1Y-105.5
X139.2Y-108.0
X139.2Y-112.2
X139.3Y-59.4
X139.3Y-60.4
X139.5Y-53.4
X139.5Y-54.6
X139.5Y-56.0
X139.5Y-86.5
X139.5Y-99.0
X139.5Y-104.0
X139.6Y-69.9
X139.6Y-117.0
X139.6Y-120.0
X139.6Y-123.0
X139.6Y-125.6
X139.6Y-129.4
X139.8Y-94.9
X139.833Y-100.267
X139.833Y-101.4
X139.833Y-102.533
X139.9Y-68.5
X140.0Y-41.0
X140.0Y-145.0
X140.1Y-97.2
X140.2Y-95.4
X140.2Y-133.0
X140.5Y-86.5
X140.6Y-59.4
X140.6Y-60.4
X140.6Y-70.2
X140.7Y-50.4
X140.7Y-68.3
X140.9Y-120.0
X140.9Y-123.0
X140.9Y-125.6
X140.9Y-129.4
X141.0Y-55.0
X141.0Y-74.1
X141.0Y-88.0
X141.0Y-89.0
X141.0Y-90.1
X141.0Y-98.0
X141.0Y-101.0
X141.0Y-102.5
X141.0Y-117.0
X141.5Y-70.2
X141.5Y-107.1
X141.6Y-68.3
X141.7Y-104.6
X141.9Y-137.7
X142.0Y-59.4
X142.0Y-60.4
X142.0Y-67.5
X142.0Y-79.0
X142.0Y-99.0
X142.0Y-100.0
X142.4Y-43.0
X142.4Y-52.0
X142.4Y-52.8
X142.4Y-53.5
X142.5Y-70.2
X142.5Y-103.1
X142.6Y-90.4
X142.7Y-139.1
X142.8Y-74.1
X142.9Y-98.0
X142.9Y-101.1
X143.0Y-65.9
X143.0Y-110.0
X143.184Y-52.792
X143.2Y-52.0
X143.2Y-53.5
X143.3Y-43.0
X143.3Y-67.5
X143.4Y-68.3
X143.5Y-59.5
X143.5Y-79.5
X143.5Y-90.4
X143.5Y-91.35
X143.6Y-106.1
X144.0Y-52.0
X144.0Y-52.8
X144.0Y-53.5
X144.0Y-93.2
X144.0Y-96.0
X144.0Y-124.0
X144.0Y-128.0
X144.0Y-134.0
X144.3Y-64.8
X144.3Y-70.2
X144.4Y-66.4
X144.4Y-115.0
X144.5Y-68.3
X144.5Y-81.0
X144.6Y-77.8
X144.6Y-91.8
X144.6Y-105.2
X144.6Y-106.1
X144.884Y-48.592
X145.0Y-41.0
X145.0Y-112.5
X145.0Y-117.0
X145.0Y-120.0
X145.0Y-121.4
X145.0Y-126.5
X145.0Y-131.5
X145.0Y-135.5
X145.0Y-139.6
X145.0Y-145.0
X145.1Y-70.2
X145.1Y-71.6
X145.1Y-72.9
X145.2Y-49.7
X145.2Y-57.3
X145.2Y-65.8
X145.4Y-95.8
X145.5Y-64.2
X145.5Y-95.0
X145.8Y-68.3
X145.9Y-59.5
X145.9Y-73.6
X146.0Y-48.0
X146.0Y-50.0
X146.0Y-82.0
X146.0Y-87.5
X146.0Y-90.5
X146.1Y-65.4
X146.5Y-77.8
X146.7Y-63.9
X146.8Y-68.3
X146.8Y-71.6
X147.0Y-43.0
X147.0Y-46.5
X147.0Y-48.0
X147.0Y-53.0
X147.1Y-65.1
X147.2Y-94.6
X147.5Y-96.0
X147.9Y-108.0
X148.0Y-63.8
X148.0Y-65.0
X148.0Y-85.5
X148.0Y-101.0
X148.0Y-118.0
X148.4Y-72.0
X148.4Y-73.3
X148.5Y-91.0
X148.5Y-93.5
X149.0Y-48.0
X149.0Y-87.5
X149.0Y-102.5
X149.0Y-103.5
X149.0Y-104.5
X149.0Y-143.0
X149.3Y-72.0
X149.3Y-73.3
X149.5Y-49.7
X149.5Y-51.0
X149.7Y-97.7
X149.9Y-103.0
X149.9Y-104.0
X149.9Y-105.0
X150.0Y-41.0
X150.0Y-145.0
X150.2Y-72.0
X150.2Y-73.3
X150.3Y-98.3
X150.397Y-48.792
X150.397Y-50.192
X150.397Y-51.592
X150.397Y-54.192
X150.397Y-55.592
X150.397Y-56.992
X150.397Y-58.392
X150.4Y-85.7
X150.4Y-95.9
X150.5Y-94.5
X151.0Y-68.0
X151.0Y-77.0
X151.0Y-107.0
X151.0Y-109.0
X151.1Y-72.0
X151.1Y-73.3
X151.2Y-87.8
X151.2Y-91.9
X151.2Y-95.2
X151.225Y-99.025
X151.4Y-86.799
X151.5Y-95.9
X151.5Y-99.9
X152.0Y-44.0
X152.0Y-61.0
X152.0Y-62.0
X152.0Y-63.0
X152.0Y-64.0
X152.0Y-65.0
X152.0Y-66.0
X152.0Y-67.0
X152.0Y-68.0
X152.0Y-69.0
X152.0Y-70.0
X152.0Y-71.0
X152.0Y-72.0
X152.0Y-73.3
X152.0Y-74.5
X152.0Y-75.5
X152.0Y-76.5
X152.0Y-77.5
X152.0Y-78.5
X152.0Y-79.5
X152.0Y-80.5
X152.0Y-81.5
X152.0Y-82.5
X152.0Y-115.0
X152.0Y-116.0
X152.0Y-120.0
X152.0Y-122.5
X152.2Y-86.4
X152.2Y-90.5
X152.2Y-96.6
X152.4Y-100.5
X153.0Y-82.5
X153.0Y-133.0
X153.0Y-135.0
X153.0Y-139.6
X153.5Y-58.5
X153.5Y-89.0
X153.5Y-93.4
X153.58Y-98.28
X154.0Y-82.5
X154.0Y-84.5
X154.1Y-138.2
X154.5Y-58.5
X154.5Y-98.9
X154.8Y-93.2
X155.0Y-41.0
X155.0Y-48.0
X155.0Y-53.0
X155.0Y-82.5
X155.0Y-145.0
X155.2Y-135.5
X155.5Y-58.5
X155.8Y-97.2
X155.822Y-87.804
X156.0Y-82.5
X156.0Y-118.0
X156.0Y-122.0
X156.0Y-133.0
X156.4Y-100.4
X156.5Y-58.5
X156.5Y-93.5
X156.6Y-122.7
X156.6Y-129.2
X156.8Y-135.4
X157.0Y-82.5
X157.0Y-106.6
X157.5Y-58.5
X157.5Y-102.8
X158.0Y-50.0
X158.0Y-56.0
X158.0Y-82.5
X158.5Y-58.5
X159.0Y-82.5
X159.0Y-89.0
X159.4Y-98.4
X159.5Y-58.5
X160.0Y-82.5
X160.0Y-100.5
X160.0Y-110.0
X160.0Y-115.0
X160.0Y-120.0
X160.0Y-125.0
X160.0Y-130.0
X160.0Y-135.0
X160.0Y-140.0
X160.0Y-143.0
X160.1Y-97.7
X160.3Y-94.2
X160.5Y-58.5
X160.5Y-84.0
X160.7Y-92.8
X160.8Y-88.2
X160.9Y-107.7
X161.0Y-82.5
X161.0Y-95.0
X161.4Y-87.6
X161.4Y-92.2
X161.5Y-58.5
X162.0Y-82.5
X162.5Y-47.5
X162.5Y-52.5
X162.5Y-57.5
X162.5Y-58.5
X162.5Y-83.0
X162.5Y-87.5
X162.5Y-92.5
X162.5Y-97.5
X162.5Y-102.5
X162.5Y-107.5
X162.5Y-112.5
X162.5Y-117.5
X162.5Y-122.5
X162.5Y-127.5
X162.5Y-132.5
X162.5Y-137.5
T2
X98.89Y-140.888
X99.483Y-139.456
X99.483Y-142.319
X100.915Y-138.863
X100.915Y-142.913
X102.347Y-139.456
X102.347Y-142.319
X102.94Y-140.888
X155.975Y-45.0
X156.568Y-43.568
X156.568Y-46.432
X158.0Y-42.975
X158.0Y-47.025
X159.432Y-43.568
X159.432Y-46.432
X160.025Y-45.0
T4
X100.915Y-140.888
X158.0Y-45.0
T5
X127.11Y-138.695
X132.89Y-138.695
T6
X141.0Y-143.0
T3
G00X125.68Y-138.745
M15
G01X125.68Y-137.645
M16
G05
G00X125.68Y-142.775
M15
G01X125.68Y-141.975
M16
G05
G00X134.32Y-138.745
M15
G01X134.32Y-137.645
M16
G05
G00X134.32Y-142.775
M15
G01X134.32Y-141.975
M16
G05
T7
G00X99.55Y-48.0
M15
G01X100.45Y-48.0
M16
G05
G00X100.45Y-54.0
M15
G01X99.55Y-54.0
M16
G05
M30
