%TF.GenerationSoftware,KiCad,Pcbnew,9.0.7*%
%TF.CreationDate,2026-03-22T15:49:27+08:00*%
%TF.ProjectId,MokyaLora,4d6f6b79-614c-46f7-9261-2e6b69636164,A*%
%TF.SameCoordinates,Original*%
%TF.FileFunction,Paste,Top*%
%TF.FilePolarity,Positive*%
%FSLAX46Y46*%
G04 Gerber Fmt 4.6, Leading zero omitted, Abs format (unit mm)*
G04 Created by KiCad (PCBNEW 9.0.7) date 2026-03-22 15:49:27*
%MOMM*%
%LPD*%
G01*
G04 APERTURE LIST*
G04 Aperture macros list*
%AMRoundRect*
0 Rectangle with rounded corners*
0 $1 Rounding radius*
0 $2 $3 $4 $5 $6 $7 $8 $9 X,Y pos of 4 corners*
0 Add a 4 corners polygon primitive as box body*
4,1,4,$2,$3,$4,$5,$6,$7,$8,$9,$2,$3,0*
0 Add four circle primitives for the rounded corners*
1,1,$1+$1,$2,$3*
1,1,$1+$1,$4,$5*
1,1,$1+$1,$6,$7*
1,1,$1+$1,$8,$9*
0 Add four rect primitives between the rounded corners*
20,1,$1+$1,$2,$3,$4,$5,0*
20,1,$1+$1,$4,$5,$6,$7,0*
20,1,$1+$1,$6,$7,$8,$9,0*
20,1,$1+$1,$8,$9,$2,$3,0*%
G04 Aperture macros list end*
%ADD10RoundRect,0.150000X-0.200000X0.150000X-0.200000X-0.150000X0.200000X-0.150000X0.200000X0.150000X0*%
%ADD11RoundRect,0.097500X0.227500X-0.227500X0.227500X0.227500X-0.227500X0.227500X-0.227500X-0.227500X0*%
%ADD12RoundRect,0.120000X-0.380000X-0.280000X0.380000X-0.280000X0.380000X0.280000X-0.380000X0.280000X0*%
%ADD13RoundRect,0.097500X-0.227500X0.227500X-0.227500X-0.227500X0.227500X-0.227500X0.227500X0.227500X0*%
%ADD14RoundRect,0.250000X-0.435000X-0.615000X0.435000X-0.615000X0.435000X0.615000X-0.435000X0.615000X0*%
%ADD15RoundRect,0.125000X-0.250000X-0.125000X0.250000X-0.125000X0.250000X0.125000X-0.250000X0.125000X0*%
%ADD16RoundRect,0.120000X0.380000X0.280000X-0.380000X0.280000X-0.380000X-0.280000X0.380000X-0.280000X0*%
%ADD17R,3.200000X1.800000*%
%ADD18RoundRect,0.140000X0.140000X0.170000X-0.140000X0.170000X-0.140000X-0.170000X0.140000X-0.170000X0*%
G04 APERTURE END LIST*
D10*
%TO.C,D27*%
X147400000Y-124300000D03*
X147400000Y-125700000D03*
%TD*%
%TO.C,D9*%
X117400000Y-124300000D03*
X117400000Y-125700000D03*
%TD*%
%TO.C,D15*%
X127400000Y-124300000D03*
X127400000Y-125700000D03*
%TD*%
%TO.C,D3*%
X107400000Y-124300000D03*
X107400000Y-125700000D03*
%TD*%
D11*
%TO.C,SW18*%
X128625000Y-141375000D03*
X128625000Y-138625000D03*
X131375000Y-141375000D03*
X131375000Y-138625000D03*
%TD*%
D10*
%TO.C,D21*%
X137400000Y-124300000D03*
X137400000Y-125700000D03*
%TD*%
%TO.C,D12*%
X117400000Y-139300000D03*
X117400000Y-140700000D03*
%TD*%
D11*
%TO.C,SW12*%
X118625000Y-141375000D03*
X118625000Y-138625000D03*
X121375000Y-141375000D03*
X121375000Y-138625000D03*
%TD*%
D10*
%TO.C,D23*%
X137400000Y-134300000D03*
X137400000Y-135700000D03*
%TD*%
%TO.C,D18*%
X127400000Y-139600000D03*
X127400000Y-141000000D03*
%TD*%
%TO.C,D30*%
X147400000Y-139300000D03*
X147400000Y-140700000D03*
%TD*%
D12*
%TO.C,D38*%
X105000000Y-108342213D03*
X105000000Y-106642213D03*
%TD*%
D13*
%TO.C,SW31*%
X131375000Y-101625000D03*
X131375000Y-104375000D03*
X128625000Y-101625000D03*
X128625000Y-104375000D03*
%TD*%
D11*
%TO.C,SW15*%
X128625000Y-126375000D03*
X128625000Y-123625000D03*
X131375000Y-126375000D03*
X131375000Y-123625000D03*
%TD*%
D14*
%TO.C,U4*%
X134750000Y-114225000D03*
X134750000Y-116375000D03*
X136450000Y-114225000D03*
X136450000Y-116375000D03*
D15*
X132900000Y-113395000D03*
X132900000Y-114665000D03*
X132900000Y-115935000D03*
X132900000Y-117205000D03*
X138300000Y-117205000D03*
X138300000Y-115935000D03*
X138300000Y-114665000D03*
X138300000Y-113395000D03*
%TD*%
D13*
%TO.C,SW32*%
X131375000Y-106625000D03*
X131375000Y-109375000D03*
X128625000Y-106625000D03*
X128625000Y-109375000D03*
%TD*%
D11*
%TO.C,SW13*%
X122625000Y-109375000D03*
X122625000Y-106625000D03*
X125375000Y-109375000D03*
X125375000Y-106625000D03*
%TD*%
D10*
%TO.C,D33*%
X127400000Y-112300000D03*
X127400000Y-113700000D03*
%TD*%
D12*
%TO.C,D39*%
X105000000Y-125850000D03*
X105000000Y-124150000D03*
%TD*%
D11*
%TO.C,SW35*%
X143625000Y-104375000D03*
X143625000Y-101625000D03*
X146375000Y-104375000D03*
X146375000Y-101625000D03*
%TD*%
D10*
%TO.C,D34*%
X139600000Y-107300000D03*
X139600000Y-108700000D03*
%TD*%
D11*
%TO.C,SW8*%
X118625000Y-121375000D03*
X118625000Y-118625000D03*
X121375000Y-121375000D03*
X121375000Y-118625000D03*
%TD*%
D16*
%TO.C,D42*%
X155000000Y-139150000D03*
X155000000Y-140850000D03*
%TD*%
D11*
%TO.C,SW10*%
X118625000Y-131375000D03*
X118625000Y-128625000D03*
X121375000Y-131375000D03*
X121375000Y-128625000D03*
%TD*%
%TO.C,SW24*%
X138625000Y-141375000D03*
X138625000Y-138625000D03*
X141375000Y-141375000D03*
X141375000Y-138625000D03*
%TD*%
D16*
%TO.C,D41*%
X155196661Y-106642213D03*
X155196661Y-108342213D03*
%TD*%
D11*
%TO.C,SW22*%
X138625000Y-131375000D03*
X138625000Y-128625000D03*
X141375000Y-131375000D03*
X141375000Y-128625000D03*
%TD*%
D10*
%TO.C,D29*%
X147400000Y-134300000D03*
X147400000Y-135700000D03*
%TD*%
D11*
%TO.C,SW3*%
X108625000Y-126375000D03*
X108625000Y-123625000D03*
X111375000Y-126375000D03*
X111375000Y-123625000D03*
%TD*%
D16*
%TO.C,D43*%
X155000000Y-124150000D03*
X155000000Y-125850000D03*
%TD*%
D10*
%TO.C,D24*%
X137400000Y-139300000D03*
X137400000Y-140700000D03*
%TD*%
%TO.C,D28*%
X147400000Y-129300000D03*
X147400000Y-130700000D03*
%TD*%
%TO.C,D6*%
X107400000Y-139300000D03*
X107400000Y-140700000D03*
%TD*%
%TO.C,D22*%
X137400000Y-129300000D03*
X137400000Y-130700000D03*
%TD*%
D11*
%TO.C,SW29*%
X148625000Y-136375000D03*
X148625000Y-133625000D03*
X151375000Y-136375000D03*
X151375000Y-133625000D03*
%TD*%
D10*
%TO.C,D20*%
X137400000Y-119300000D03*
X137400000Y-120700000D03*
%TD*%
D11*
%TO.C,SW5*%
X108625000Y-136375000D03*
X108625000Y-133625000D03*
X111375000Y-136375000D03*
X111375000Y-133625000D03*
%TD*%
D17*
%TO.C,LS1*%
X134546661Y-54192213D03*
X125846661Y-54192213D03*
X125846661Y-42792213D03*
X134546661Y-42792213D03*
%TD*%
D10*
%TO.C,D31*%
X132600000Y-102300000D03*
X132600000Y-103700000D03*
%TD*%
%TO.C,D2*%
X107400000Y-119300000D03*
X107400000Y-120700000D03*
%TD*%
%TO.C,D5*%
X107400000Y-134300000D03*
X107400000Y-135700000D03*
%TD*%
D11*
%TO.C,SW6*%
X108625000Y-141375000D03*
X108625000Y-138625000D03*
X111375000Y-141375000D03*
X111375000Y-138625000D03*
%TD*%
D10*
%TO.C,D14*%
X127400000Y-119300000D03*
X127400000Y-120700000D03*
%TD*%
D11*
%TO.C,SW20*%
X138625000Y-121375000D03*
X138625000Y-118625000D03*
X141375000Y-121375000D03*
X141375000Y-118625000D03*
%TD*%
%TO.C,SW27*%
X148625000Y-126375000D03*
X148625000Y-123625000D03*
X151375000Y-126375000D03*
X151375000Y-123625000D03*
%TD*%
%TO.C,SW36*%
X153625000Y-104375000D03*
X153625000Y-101625000D03*
X156375000Y-104375000D03*
X156375000Y-101625000D03*
%TD*%
D10*
%TO.C,D26*%
X147400000Y-119300000D03*
X147400000Y-120700000D03*
%TD*%
D11*
%TO.C,SW17*%
X128625000Y-136375000D03*
X128625000Y-133625000D03*
X131375000Y-136375000D03*
X131375000Y-133625000D03*
%TD*%
D10*
%TO.C,D25*%
X152400000Y-112300000D03*
X152400000Y-113700000D03*
%TD*%
D11*
%TO.C,SW9*%
X118625000Y-126375000D03*
X118625000Y-123625000D03*
X121375000Y-126375000D03*
X121375000Y-123625000D03*
%TD*%
%TO.C,SW26*%
X148625000Y-121375000D03*
X148625000Y-118625000D03*
X151375000Y-121375000D03*
X151375000Y-118625000D03*
%TD*%
%TO.C,SW23*%
X138625000Y-136375000D03*
X138625000Y-133625000D03*
X141375000Y-136375000D03*
X141375000Y-133625000D03*
%TD*%
%TO.C,SW16*%
X128625000Y-131375000D03*
X128625000Y-128625000D03*
X131375000Y-131375000D03*
X131375000Y-128625000D03*
%TD*%
D10*
%TO.C,D19*%
X142400000Y-112300000D03*
X142400000Y-113700000D03*
%TD*%
%TO.C,D17*%
X127400000Y-134300000D03*
X127400000Y-135700000D03*
%TD*%
%TO.C,D32*%
X132600000Y-107300000D03*
X132600000Y-108700000D03*
%TD*%
D13*
%TO.C,SW34*%
X138375000Y-106625000D03*
X138375000Y-109375000D03*
X135625000Y-106625000D03*
X135625000Y-109375000D03*
%TD*%
D12*
%TO.C,D40*%
X105000000Y-140850000D03*
X105000000Y-139150000D03*
%TD*%
D10*
%TO.C,D35*%
X142400000Y-102300000D03*
X142400000Y-103700000D03*
%TD*%
%TO.C,D1*%
X112400000Y-102300000D03*
X112400000Y-103700000D03*
%TD*%
%TO.C,D36*%
X152400000Y-102300000D03*
X152400000Y-103700000D03*
%TD*%
D11*
%TO.C,SW7*%
X113625000Y-114375000D03*
X113625000Y-111625000D03*
X116375000Y-114375000D03*
X116375000Y-111625000D03*
%TD*%
D10*
%TO.C,D10*%
X117400000Y-129300000D03*
X117400000Y-130700000D03*
%TD*%
D18*
%TO.C,C22*%
X138480000Y-112100000D03*
X137520000Y-112100000D03*
%TD*%
D11*
%TO.C,SW14*%
X128625000Y-121375000D03*
X128625000Y-118625000D03*
X131375000Y-121375000D03*
X131375000Y-118625000D03*
%TD*%
D10*
%TO.C,D4*%
X107400000Y-129300000D03*
X107400000Y-130700000D03*
%TD*%
D11*
%TO.C,SW25*%
X153625000Y-114375000D03*
X153625000Y-111625000D03*
X156375000Y-114375000D03*
X156375000Y-111625000D03*
%TD*%
D10*
%TO.C,D8*%
X117400000Y-119300000D03*
X117400000Y-120700000D03*
%TD*%
%TO.C,D11*%
X117400000Y-134300000D03*
X117400000Y-135700000D03*
%TD*%
D11*
%TO.C,SW1*%
X113625000Y-104375000D03*
X113625000Y-101625000D03*
X116375000Y-104375000D03*
X116375000Y-101625000D03*
%TD*%
D10*
%TO.C,D16*%
X127400000Y-129300000D03*
X127400000Y-130700000D03*
%TD*%
D11*
%TO.C,SW19*%
X143625000Y-114375000D03*
X143625000Y-111625000D03*
X146375000Y-114375000D03*
X146375000Y-111625000D03*
%TD*%
%TO.C,SW33*%
X128625000Y-114375000D03*
X128625000Y-111625000D03*
X131375000Y-114375000D03*
X131375000Y-111625000D03*
%TD*%
%TO.C,SW30*%
X148625000Y-141375000D03*
X148625000Y-138625000D03*
X151375000Y-141375000D03*
X151375000Y-138625000D03*
%TD*%
D10*
%TO.C,D13*%
X121400000Y-107300000D03*
X121400000Y-108700000D03*
%TD*%
%TO.C,D7*%
X112400000Y-112300000D03*
X112400000Y-113700000D03*
%TD*%
D11*
%TO.C,SW21*%
X138625000Y-126375000D03*
X138625000Y-123625000D03*
X141375000Y-126375000D03*
X141375000Y-123625000D03*
%TD*%
%TO.C,SW28*%
X148625000Y-131375000D03*
X148625000Y-128625000D03*
X151375000Y-131375000D03*
X151375000Y-128625000D03*
%TD*%
%TO.C,SW2*%
X108625000Y-121375000D03*
X108625000Y-118625000D03*
X111375000Y-121375000D03*
X111375000Y-118625000D03*
%TD*%
%TO.C,SW4*%
X108625000Y-131375000D03*
X108625000Y-128625000D03*
X111375000Y-131375000D03*
X111375000Y-128625000D03*
%TD*%
%TO.C,SW11*%
X118625000Y-136375000D03*
X118625000Y-133625000D03*
X121375000Y-136375000D03*
X121375000Y-133625000D03*
%TD*%
M02*
